<svg width="156" height="40" viewBox="0 0 156 40" fill="none" xmlns="http://www.w3.org/2000/svg">
<g id="logo/botbox">
<g id="Group 3">
<path id="Combined Shape" fill-rule="evenodd" clip-rule="evenodd" d="M91.0235 32.0263V18.6943H88.8295V15.0153H91.0235V8.5013H95.0735V15.0153H98.7525V18.6943H95.0735V32.0263H91.0235ZM63.7538 23.5204C63.7538 25.0054 63.2818 26.2544 62.3028 27.2334C61.3578 28.2124 60.1768 28.7184 58.7248 28.7184C57.2738 28.7184 56.0248 28.2124 55.0118 27.2334C54.0338 26.2544 53.5278 25.0054 53.5278 23.5204C53.5278 22.0354 54.0338 20.7874 55.0118 19.8084C56.0248 18.8294 57.2738 18.3224 58.7248 18.3224C60.1768 18.3224 61.3578 18.8294 62.3028 19.8084C63.2818 20.7874 63.7538 22.0354 63.7538 23.5204ZM49.7808 8.5014V32.0264H53.8308V29.5624C54.4048 31.2154 56.4638 32.3974 59.2648 32.3974C61.6608 32.3974 63.6868 31.5534 65.3068 29.8664C66.9608 28.1444 67.7698 26.0514 67.7698 23.5204C67.7698 20.9894 66.9608 18.8964 65.3068 17.2094C63.6868 15.4874 61.6608 14.6444 59.2648 14.6444C56.4638 14.6444 54.4048 15.8254 53.8308 17.4794V8.5014H49.7808ZM83.7007 23.5209C83.7007 25.0389 83.1937 26.2879 82.1817 27.3349C81.1687 28.3479 79.9197 28.8539 78.4347 28.8539C76.9157 28.8539 75.6667 28.3479 74.6547 27.3349C73.6757 26.2879 73.1697 25.0389 73.1697 23.5209C73.1697 22.0019 73.6757 20.7529 74.6547 19.7409C75.6667 18.6939 76.9157 18.1879 78.4347 18.1879C79.9197 18.1879 81.1687 18.6939 82.1817 19.7409C83.1937 20.7529 83.7007 22.0019 83.7007 23.5209ZM71.8537 17.1079C70.0647 18.8289 69.1537 20.9889 69.1537 23.5209C69.1537 26.0519 70.0647 28.2119 71.8537 29.9339C73.6417 31.6539 75.8357 32.5319 78.4347 32.5319C81.0337 32.5319 83.2277 31.6539 85.0167 29.9339C86.8047 28.2119 87.7167 26.0519 87.7167 23.5209C87.7167 20.9889 86.8047 18.8289 85.0167 17.1079C83.2277 15.3869 81.0337 14.5089 78.4347 14.5089C75.8357 14.5089 73.6417 15.3869 71.8537 17.1079ZM114.514 23.5204C114.514 25.0054 114.042 26.2544 113.063 27.2334C112.118 28.2124 110.937 28.7184 109.486 28.7184C108.034 28.7184 106.786 28.2124 105.773 27.2334C104.794 26.2544 104.288 25.0054 104.288 23.5204C104.288 22.0354 104.794 20.7874 105.773 19.8084C106.786 18.8294 108.034 18.3224 109.486 18.3224C110.937 18.3224 112.118 18.8294 113.063 19.8084C114.042 20.7874 114.514 22.0354 114.514 23.5204ZM100.542 8.5014V32.0264H104.591V29.5624C105.166 31.2154 107.224 32.3974 110.026 32.3974C112.421 32.3974 114.447 31.5534 116.067 29.8664C117.721 28.1444 118.531 26.0514 118.531 23.5204C118.531 20.9894 117.721 18.8964 116.067 17.2094C114.447 15.4874 112.421 14.6444 110.026 14.6444C107.224 14.6444 105.166 15.8254 104.591 17.4794V8.5014H100.542ZM132.941 27.3349C133.954 26.2879 134.46 25.0389 134.46 23.5209C134.46 22.0019 133.954 20.7529 132.941 19.7409C131.928 18.6939 130.679 18.1879 129.195 18.1879C127.676 18.1879 126.427 18.6939 125.415 19.7409C124.436 20.7529 123.929 22.0019 123.929 23.5209C123.929 25.0389 124.436 26.2879 125.415 27.3349C126.427 28.3479 127.676 28.8539 129.195 28.8539C130.679 28.8539 131.928 28.3479 132.941 27.3349ZM119.913 23.5209C119.913 20.9889 120.825 18.8289 122.613 17.1079C124.402 15.3869 126.596 14.5089 129.195 14.5089C131.794 14.5089 133.987 15.3869 135.776 17.1079C137.565 18.8289 138.476 20.9889 138.476 23.5209C138.476 26.0519 137.565 28.2119 135.776 29.9339C133.987 31.6539 131.794 32.5319 129.195 32.5319C126.596 32.5319 124.402 31.6539 122.613 29.9339C120.825 28.2119 119.913 26.0519 119.913 23.5209ZM144.923 23.0473L138.477 32.0263H142.831L147.151 26.0183L151.471 32.0263H155.825L149.378 23.0143L155.25 15.0153H150.83L147.151 20.1113L143.438 15.0153H139.05L144.923 23.0473Z" fill="#23374D"/>
<path id="Combined Shape_2" fill-rule="evenodd" clip-rule="evenodd" d="M27.692 0H12.307C5.51 0 0 5.51 0 12.308V27.692C0 34.489 5.51 40 12.307 40H40V12.308C40 5.51 34.489 0 27.692 0ZM27.692 4.615C31.934 4.615 35.384 8.066 35.384 12.308V35.385H12.307C8.066 35.385 4.615 31.934 4.615 27.692V12.308C4.615 8.066 8.066 4.615 12.307 4.615H27.692ZM8.5445 20.0003C8.5445 21.8143 10.0215 23.2913 11.8355 23.2913C13.6505 23.2913 15.1265 21.8143 15.1265 20.0003C15.1265 18.1853 13.6505 16.7093 11.8355 16.7093C10.0215 16.7093 8.5445 18.1853 8.5445 20.0003ZM16.7086 20.0003C16.7086 21.8143 18.1856 23.2913 19.9996 23.2913C21.8146 23.2913 23.2906 21.8143 23.2906 20.0003C23.2906 18.1853 21.8146 16.7093 19.9996 16.7093C18.1856 16.7093 16.7086 18.1853 16.7086 20.0003ZM24.8727 20.0003C24.8727 21.8143 26.3497 23.2913 28.1637 23.2913C29.9787 23.2913 31.4547 21.8143 31.4547 20.0003C31.4547 18.1853 29.9787 16.7093 28.1637 16.7093C26.3497 16.7093 24.8727 18.1853 24.8727 20.0003Z" fill="#1089FF"/>
</g>
</g>
</svg>
