<svg width="24" height="24" viewBox="0 0 24 24" fill="none" xmlns="http://www.w3.org/2000/svg">
<path d="M7.5061 16.915C8.6111 16.915 9.5061 17.81 9.5061 18.915C9.5061 20.02 8.6111 20.915 7.5061 20.915C6.4011 20.915 5.5061 20.02 5.5061 18.915C5.5061 17.81 6.4011 16.915 7.5061 16.915" stroke="#23374D" stroke-width="1.5" stroke-linecap="round" stroke-linejoin="round"/>
<path d="M16.4939 16.915C17.5989 16.915 18.4939 17.81 18.4939 18.915C18.4939 20.02 17.5989 20.915 16.4939 20.915C15.3889 20.915 14.4939 20.02 14.4939 18.915C14.4939 17.81 15.3889 16.915 16.4939 16.915" stroke="#23374D" stroke-width="1.5" stroke-linecap="round" stroke-linejoin="round"/>
<path d="M4.729 8.368C5.834 8.368 6.729 9.263 6.729 10.368C6.729 11.473 5.834 12.368 4.729 12.368C3.624 12.368 2.729 11.473 2.729 10.368C2.729 9.263 3.624 8.368 4.729 8.368" stroke="#23374D" stroke-width="1.5" stroke-linecap="round" stroke-linejoin="round"/>
<path d="M12 3.085C13.105 3.085 14 3.98 14 5.085C14 6.19 13.105 7.085 12 7.085C10.895 7.085 10 6.19 10 5.085C10 3.98 10.895 3.085 12 3.085" stroke="#23374D" stroke-width="1.5" stroke-linecap="round" stroke-linejoin="round"/>
<path d="M19.271 8.368C20.376 8.368 21.271 9.263 21.271 10.368C21.271 11.473 20.376 12.368 19.271 12.368C18.166 12.368 17.271 11.473 17.271 10.368C17.271 9.263 18.166 8.368 19.271 8.368" stroke="#23374D" stroke-width="1.5" stroke-linecap="round" stroke-linejoin="round"/>
<path d="M12 10.444C13.105 10.444 14 11.339 14 12.444C14 13.549 13.105 14.444 12 14.444C10.895 14.444 10 13.549 10 12.444C10 11.339 10.895 10.444 12 10.444" stroke="#23374D" stroke-width="1.5" stroke-linecap="round" stroke-linejoin="round"/>
</svg>
