<svg width="24" height="24" viewBox="0 0 24 24" fill="none" xmlns="http://www.w3.org/2000/svg">
<path d="M17.0021 1.99583C19.7647 1.99583 22.0042 4.23534 22.0042 6.99791C22.0042 9.76049 19.7647 12 17.0021 12C14.2395 12 12 9.76049 12 6.99791C12 4.23534 14.2395 1.99583 17.0021 1.99583" stroke="#23374D" stroke-width="1.5" stroke-linecap="round" stroke-linejoin="round"/>
<path d="M20.0033 14.0008V14.376C20.0033 15.9413 18.7344 17.2102 17.1691 17.2102H12.4452L7.72118 20.9897V17.2102H5.8304C4.26512 17.2102 2.99622 15.9413 2.99622 14.376V6.81684C2.99622 5.25157 4.26512 3.98266 5.8304 3.98266H9.99913" stroke="#23374D" stroke-width="1.5" stroke-linecap="round" stroke-linejoin="round"/>
<path d="M18.3606 6.94189C18.3453 6.94074 18.3301 6.9462 18.3191 6.9569C18.308 6.9676 18.302 6.98252 18.3026 6.99792C18.3026 7.02066 18.3164 7.04115 18.3374 7.04976C18.3585 7.05837 18.3827 7.05339 18.3986 7.03716C18.4145 7.02093 18.4191 6.99667 18.4101 6.97577C18.4011 6.95487 18.3804 6.94149 18.3576 6.94189" stroke="#23374D" stroke-width="1.5" stroke-linecap="round" stroke-linejoin="round"/>
<path d="M15.6435 6.94189C15.6128 6.94299 15.5887 6.96853 15.5895 6.9992C15.5902 7.02987 15.6154 7.05425 15.6461 7.0539C15.6768 7.05355 15.7015 7.02859 15.7015 6.99791C15.7015 6.96736 15.677 6.94244 15.6465 6.94189" stroke="#23374D" stroke-width="1.5" stroke-linecap="round" stroke-linejoin="round"/>
</svg>
