<svg width="154" height="24" viewBox="0 0 154 24" fill="none" xmlns="http://www.w3.org/2000/svg">
<mask id="mask0_1209_139" style="mask-type:alpha" maskUnits="userSpaceOnUse" x="0" y="2" width="40" height="22">
<path d="M2.11323 11.3559C2.11323 7.54255 5.20311 4.45458 9.01453 4.45458C12.8279 4.45458 15.9158 7.54446 15.9158 11.3559C15.9158 15.1673 12.826 18.2572 9.01453 18.2572C5.20311 18.2591 2.11323 15.1692 2.11323 11.3559ZM9.02214 2.34326C6.53006 2.34326 4.27595 3.35417 2.64248 4.98573C1.00902 6.6173 0 8.87331 0 11.3654C0 16.3458 4.03798 20.3837 9.02024 20.3837H30.7332C33.1719 20.3837 35.5117 21.3509 37.2347 23.0776L37.8972 23.7401C38.4531 24.296 39.4031 23.9001 39.4031 23.1176V20.8254C39.4031 10.6191 31.1272 2.34516 20.919 2.34516H9.02214V2.34326Z" fill="#993939"/>
</mask>
<g mask="url(#mask0_1209_139)">
<path d="M8.43316 -13.8164L48.4074 7.0398L30.9742 40.4535L-9 19.5973L8.43316 -13.8164Z" fill="url(#paint0_linear_1209_139)"/>
</g>
<path d="M11.6878 11.3561C11.6878 12.8315 10.4922 14.0271 9.01675 14.0271C7.5413 14.0271 6.3457 12.8315 6.3457 11.3561C6.3457 9.88064 7.5413 8.68506 9.01675 8.68506C10.4922 8.68506 11.6878 9.88064 11.6878 11.3561Z" fill="#4F17A4"/>
<path d="M44.791 10.7472C44.8462 10.4521 44.8938 10.1551 44.9566 9.86382C45.6382 6.7035 48.5701 4.51793 52.0084 4.83586C53.6323 4.98626 55.0278 5.62594 56.1415 6.83486C56.4575 7.17754 56.7127 7.56211 56.7907 8.03807C56.884 8.60921 56.6346 9.14227 56.151 9.40309C55.6351 9.68105 55.0544 9.61822 54.6299 9.21462C54.4033 9.00139 54.2149 8.75009 53.9921 8.53305C52.8594 7.42504 51.5191 7.14708 50.0493 7.67634C48.5815 8.20369 47.8028 9.33265 47.641 10.8519C47.4525 12.6262 48.2712 14.1207 49.7428 14.8328C51.2583 15.5657 53.0497 15.1964 54.1558 13.9265C54.2986 13.7628 54.4357 13.5934 54.5861 13.4373C55.0011 13.007 55.5628 12.9118 56.092 13.1707C56.5908 13.4163 56.8688 13.9399 56.8021 14.5034C56.7526 14.9318 56.5604 15.2954 56.2881 15.6171C55.1858 16.9288 53.7446 17.5971 52.0674 17.7951C49.2383 18.1301 46.4721 16.5481 45.3355 13.9456C45.0766 13.3535 44.9148 12.7367 44.8462 12.0951C44.8386 12.0227 44.812 11.9504 44.7929 11.8799L44.791 10.7472Z" fill="#020057"/>
<path d="M106.791 6.44956V5.79276C106.791 4.37823 106.787 2.96369 106.793 1.54916C106.797 0.719103 107.22 0.170809 107.949 0.0280231C108.714 -0.122378 109.428 0.357384 109.565 1.12462C109.596 1.29025 109.603 1.46159 109.603 1.63103C109.605 6.45908 109.605 11.2871 109.603 16.1152C109.603 16.2656 109.597 16.4179 109.577 16.5664C109.472 17.2727 108.956 17.722 108.261 17.722C107.576 17.722 107.035 17.2651 106.921 16.5797C106.894 16.4255 106.89 16.2694 106.875 16.119C106.797 16.1019 106.774 16.1495 106.744 16.1818C105.436 17.5411 103.806 17.9809 101.984 17.7829C98.3822 17.3907 96.0595 14.1505 96.4365 10.6246C96.6954 8.20298 97.8757 6.34866 100.136 5.35678C102.207 4.44866 104.259 4.5667 106.159 5.90889C106.363 6.05167 106.542 6.23443 106.791 6.44956ZM99.2027 11.1729C99.2008 12.2981 99.5225 13.2157 100.111 13.8935C101.099 15.0319 102.765 15.4736 104.252 14.99C105.737 14.5084 106.687 13.2785 106.801 11.6241C106.894 10.2762 106.496 9.08443 105.405 8.23724C104.132 7.24916 102.698 7.15397 101.268 7.83554C99.8367 8.519 99.2446 9.76789 99.2027 11.1729Z" fill="#020057"/>
<path d="M136.038 6.4081C136.12 6.3034 136.086 6.19488 136.086 6.09778C136.088 4.57093 136.084 3.04408 136.09 1.51532C136.093 0.73095 136.503 0.194074 137.192 0.0379623C138.005 -0.146707 138.753 0.359706 138.871 1.18025C138.894 1.33826 138.896 1.50009 138.896 1.66001C138.898 6.46712 138.898 11.2761 138.896 16.0833C138.896 16.2432 138.894 16.405 138.873 16.563C138.78 17.2598 138.25 17.7186 137.556 17.7186C136.872 17.7186 136.316 17.2465 136.213 16.5763C136.191 16.4221 136.179 16.266 136.156 16.0585C135.989 16.226 135.865 16.365 135.726 16.4869C134.45 17.6025 132.941 17.9642 131.294 17.7814C127.627 17.3778 125.421 14.1166 125.716 10.7773C125.935 8.29668 127.106 6.38716 129.417 5.36101C131.482 4.44338 133.537 4.56331 135.44 5.89407C135.654 6.04448 135.836 6.23486 136.038 6.4081ZM132.349 7.42854C130.18 7.39237 128.549 9.01061 128.501 11.2438C128.453 13.4731 130.037 15.1275 132.257 15.1713C134.45 15.2132 136.073 13.6178 136.109 11.3789C136.145 9.11722 134.574 7.46662 132.349 7.42854Z" fill="#020057"/>
<path d="M82.7229 6.52412C82.7477 6.31089 82.7591 6.15478 82.7857 6.00248C82.9 5.34947 83.4597 4.87924 84.1222 4.87733C84.7752 4.87543 85.2912 5.29807 85.4244 5.95488C85.4549 6.10148 85.4625 6.25378 85.4625 6.40418C85.4644 9.6673 85.4625 12.9285 85.4644 16.1917C85.4644 16.8237 85.2778 17.3549 84.6534 17.6195C83.8214 17.9717 82.9133 17.4482 82.7781 16.5534C82.7572 16.4068 82.7477 16.2583 82.7306 16.0984C82.6906 16.1174 82.6601 16.1231 82.6449 16.1403C81.3522 17.5167 79.7225 17.9755 77.9025 17.787C74.171 17.3987 71.9702 14.0765 72.2882 10.7315C72.5223 8.27373 73.7008 6.40799 75.9758 5.35899C77.6607 4.58224 79.4008 4.59747 81.1161 5.32472C81.7273 5.58745 82.2489 5.98915 82.7229 6.52412ZM78.9153 7.42843C76.7469 7.39226 75.1172 9.00859 75.0677 11.2456C75.0182 13.473 76.6022 15.1293 78.8239 15.1712C81.0152 15.2131 82.6411 13.6139 82.6772 11.3769C82.7134 9.1171 81.1409 7.4665 78.9153 7.42843Z" fill="#020057"/>
<path d="M61.7661 6.19659C62.1526 5.79488 62.5829 5.46552 63.0874 5.24087C64.9645 4.41081 68.0963 4.62023 69.6498 7.01522C70.3199 8.04899 70.5693 9.19698 70.575 10.4059C70.5846 12.3402 70.5846 14.2725 70.575 16.2049C70.5712 17.1835 69.9144 17.7946 68.9987 17.7089C68.3933 17.6518 67.9059 17.2063 67.8012 16.6009C67.7707 16.4257 67.765 16.2449 67.7631 16.0659C67.7612 14.3392 67.7612 12.6143 67.7612 10.8876C67.7612 10.5582 67.7517 10.2288 67.6965 9.90139C67.4052 8.19367 66.0821 7.23035 64.361 7.47975C62.8399 7.69869 61.867 8.72864 61.7433 10.2593C61.6766 11.0875 61.7185 11.9175 61.7128 12.7476C61.7033 13.9641 61.7299 15.1806 61.6938 16.3972C61.6652 17.3662 60.7247 17.9697 59.8166 17.6385C59.2759 17.4424 58.9904 17.0311 58.9199 16.4695C58.9028 16.3401 58.9066 16.2068 58.9066 16.0735C58.9066 11.2645 58.9066 6.4555 58.9066 1.64458C58.9066 1.4561 58.9047 1.26762 58.9504 1.08295C59.116 0.407101 59.7119 -0.0421925 60.3859 0.00540265C61.0941 0.0568054 61.6766 0.593685 61.69 1.29619C61.7185 2.81352 61.7052 4.33276 61.7109 5.85009C61.7147 5.95861 61.6766 6.07474 61.7661 6.19659Z" fill="#020057"/>
<path d="M124.686 11.3066C124.688 14.9638 121.789 17.8252 118.086 17.8233C114.358 17.8214 111.447 14.9619 111.451 11.3047C111.455 7.66079 114.362 4.80509 118.075 4.80128C121.779 4.79557 124.685 7.65508 124.686 11.3066ZM118.124 7.42853C115.959 7.38284 114.322 9.00298 114.269 11.238C114.216 13.4712 115.822 15.1637 118.031 15.2037C120.203 15.2437 121.835 13.6235 121.876 11.3884C121.918 9.12482 120.353 7.47422 118.124 7.42853Z" fill="#020057"/>
<path d="M147.371 17.8234C143.642 17.8158 140.744 14.96 140.752 11.2933C140.76 7.638 143.682 4.7861 147.41 4.80133C151.105 4.81466 153.983 7.67036 153.978 11.3181C153.972 14.981 151.078 17.831 147.371 17.8234ZM147.371 7.42668C145.165 7.44 143.562 9.07348 143.562 11.3124C143.562 13.5569 145.201 15.219 147.4 15.2037C149.588 15.1885 151.196 13.5189 151.177 11.2838C151.16 9.04872 149.548 7.41525 147.371 7.42668Z" fill="#020057"/>
<path d="M89.1948 11.1431C89.1948 10.0769 89.1853 9.0108 89.2024 7.94657C89.2062 7.67623 89.1186 7.61341 88.8673 7.62483C88.576 7.64006 88.281 7.65529 87.9916 7.59817C87.39 7.48014 86.9864 7.02513 86.9502 6.42353C86.9121 5.82002 87.2472 5.29837 87.7879 5.12132C88.0068 5.05088 88.2334 5.04897 88.4618 5.04707C89.132 5.04707 89.2671 4.91 89.2671 4.23034C89.2671 3.88194 89.2614 3.53164 89.269 3.18324C89.2881 2.35318 89.8706 1.7611 90.6531 1.77062C91.4375 1.78014 91.9819 2.34557 91.9972 3.18324C92.0067 3.72012 92.0067 4.25889 91.9953 4.79576C91.9915 4.99566 92.0581 5.05468 92.2542 5.05088C92.9053 5.04136 93.5583 5.03565 94.2113 5.05088C95.3098 5.07753 95.919 6.09416 95.3879 7.00418C95.1289 7.44777 94.7177 7.62293 94.2227 7.62673C93.5697 7.63244 92.9186 7.63625 92.2656 7.62292C92.0543 7.61911 91.9934 7.67622 91.9953 7.89135C92.0029 9.73995 92.001 11.5885 92.001 13.4371C92.001 13.4657 92.001 13.4943 92.0029 13.5228C92.0314 14.5318 92.3913 14.8993 93.3946 14.9431C93.6973 14.9564 94 14.9393 94.3008 14.9564C94.9405 14.9926 95.3802 15.3505 95.5059 15.9216C95.6449 16.5575 95.3745 17.1648 94.8224 17.458C94.6625 17.5437 94.4912 17.6179 94.3141 17.6236C93.4269 17.6598 92.536 17.7264 91.664 17.4942C90.179 17.0982 89.2519 15.9159 89.2138 14.3395C89.1872 13.2753 89.2081 12.2092 89.2081 11.1431C89.2005 11.1431 89.1967 11.1431 89.1948 11.1431Z" fill="#020057"/>

<defs>
<linearGradient id="paint0_linear_1209_139" x1="0.748747" y1="3.43088" x2="40.312" y2="24.0726" gradientUnits="userSpaceOnUse">
<stop stop-color="#F5CEB0"/>
<stop offset="0.4814" stop-color="#D489E5"/>
<stop offset="1" stop-color="#ABDBD5"/>
</linearGradient>
</defs>
</svg>