<svg width="24" height="24" viewBox="0 0 24 24" fill="none" xmlns="http://www.w3.org/2000/svg">
<path d="M10.8292 13.099C10.5172 12.8266 10.0434 12.8587 9.771 13.1707C9.49859 13.4828 9.5307 13.9565 9.84273 14.229L10.8292 13.099ZM16.9951 13.664L17.4883 14.229C17.5011 14.2178 17.5135 14.2063 17.5254 14.1943L16.9951 13.664ZM11.4753 4.80498C11.1793 5.09476 11.1743 5.56961 11.464 5.86558C11.7538 6.16156 12.2287 6.16659 12.5246 5.87682L11.4753 4.80498ZM13.1707 10.901C13.4827 11.1734 13.9565 11.1413 14.2289 10.8292C14.5013 10.5172 14.4692 10.0434 14.1572 9.771L13.1707 10.901ZM7.00483 10.336L6.51158 9.771C6.49883 9.78213 6.48646 9.79369 6.47449 9.80566L7.00483 10.336ZM12.5246 19.195C12.8206 18.9052 12.8256 18.4304 12.5359 18.1344C12.2461 17.8384 11.7713 17.8334 11.4753 18.1232L12.5246 19.195ZM9.84273 14.229C12.0327 16.1409 15.2984 16.1409 17.4883 14.229L16.5018 13.099C14.877 14.5175 12.4541 14.5175 10.8292 13.099L9.84273 14.229ZM17.5254 14.1943L19.1894 12.5303L18.1287 11.4697L16.4648 13.1336L17.5254 14.1943ZM19.195 12.5247C21.2884 10.3865 21.2702 6.96155 19.1543 4.84564L18.0937 5.9063C19.6282 7.44081 19.6413 9.92465 18.1231 11.4753L19.195 12.5247ZM19.1543 4.84564C17.0384 2.72973 13.6135 2.7116 11.4753 4.80498L12.5246 5.87682C14.0753 4.35865 16.5592 4.3718 18.0937 5.9063L19.1543 4.84564ZM14.1572 9.771C11.9672 7.85908 8.70153 7.85908 6.51158 9.771L7.49808 10.901C9.1229 9.48243 11.5459 9.48243 13.1707 10.901L14.1572 9.771ZM6.47449 9.80566L4.81052 11.4697L5.87119 12.5303L7.53517 10.8663L6.47449 9.80566ZM4.80494 11.4753C2.71155 13.6135 2.72969 17.0385 4.8456 19.1544L5.90626 18.0937C4.37175 16.5592 4.3586 14.0754 5.87677 12.5247L4.80494 11.4753ZM4.8456 19.1544C6.96151 21.2703 10.3864 21.2884 12.5246 19.195L11.4753 18.1232C9.9246 19.6414 7.44076 19.6282 5.90626 18.0937L4.8456 19.1544Z" fill="#23374D"/>
</svg>
