<svg width="24" height="24" viewBox="0 0 24 24" fill="none" xmlns="http://www.w3.org/2000/svg">
<path d="M12.4707 11.8044L12.471 11.804C12.5447 11.728 12.5428 11.6067 12.4668 11.533C12.3909 11.4594 12.2696 11.4612 12.1959 11.5371C12.1222 11.613 12.1239 11.7342 12.1997 11.808C12.2756 11.8818 12.3969 11.8802 12.4707 11.8044" stroke="#23374D" stroke-width="1.5" stroke-linecap="round" stroke-linejoin="round"/>
<path d="M3 13.3C3.32175 13.2505 3.64669 13.2245 3.97222 13.2222V13.2222C5.77717 13.2222 7.50819 13.9392 8.78447 15.2155C10.0608 16.4918 10.7778 18.2228 10.7778 20.0278C10.7748 20.3533 10.7488 20.6782 10.7 21" stroke="#23374D" stroke-width="1.5" stroke-linecap="round" stroke-linejoin="round"/>
<rect x="3" y="7.00001" width="14" height="14" rx="3" stroke="#23374D" stroke-width="1.5" stroke-linecap="round" stroke-linejoin="round"/>
<path d="M6 7V6C6 4.34315 7.34315 3 9 3H18C19.6569 3 21 4.34315 21 6V15C21 16.6569 19.6569 18 18 18H17" stroke="#23374D" stroke-width="1.5" stroke-linecap="round" stroke-linejoin="round"/>
</svg>
