<svg width="24" height="24" viewBox="0 0 24 24" fill="none" xmlns="http://www.w3.org/2000/svg">
<path d="M13.7687 20.2714C12.7919 21.248 11.2085 21.2478 10.2319 20.2711C9.25524 19.2944 9.25524 17.711 10.2319 16.7343C11.2085 15.7576 12.7919 15.7574 13.7687 16.734C14.2379 17.203 14.5015 17.8393 14.5015 18.5027C14.5015 19.1661 14.2379 19.8024 13.7687 20.2714" stroke="#23374D" stroke-width="1.5" stroke-linecap="round" stroke-linejoin="round"/>
<path d="M9.97217 8.91271L11.887 6.99792L13.9148 9.02576" stroke="#23374D" stroke-width="1.5" stroke-linecap="round" stroke-linejoin="round"/>
<path d="M11.8869 6.99792V13.0004" stroke="#23374D" stroke-width="1.5" stroke-linecap="round" stroke-linejoin="round"/>
<path d="M5.24622 17.9405C2.05388 14.3207 2.28349 8.82759 5.76679 5.48685C9.25008 2.14612 14.748 2.14612 18.2313 5.48685C21.7146 8.82759 21.9442 14.3207 18.7518 17.9405" stroke="#23374D" stroke-width="1.5" stroke-linecap="round" stroke-linejoin="round"/>
</svg>
