<svg width="25" height="24" viewBox="0 0 25 24" fill="none" xmlns="http://www.w3.org/2000/svg">
<path d="M12.5002 10.9991V3.31738" stroke="#A7AEBB" stroke-width="1.5" stroke-linecap="round" stroke-linejoin="round"/>
<path fill-rule="evenodd" clip-rule="evenodd" d="M12.5 10.9993L15.5013 7.99805L12.5 10.9993Z" stroke="#A7AEBB" stroke-width="1.5" stroke-linecap="round" stroke-linejoin="round"/>
<path d="M3.49609 15.001H7.87992C8.25852 15.001 8.60468 15.2147 8.77429 15.5532L9.22148 16.4486C9.39097 16.7878 9.73767 17.002 10.1169 17.0018H14.8818C15.261 17.002 15.6077 16.7878 15.7772 16.4486L16.2244 15.5542C16.3939 15.215 16.7406 15.0008 17.1198 15.001H21.5036" stroke="#A7AEBB" stroke-width="1.5" stroke-linecap="round" stroke-linejoin="round"/>
<path d="M15.5011 2.99609H18.5023C20.1599 2.99609 21.5036 4.3398 21.5036 5.99734V18.0023C21.5036 19.6599 20.1599 21.0036 18.5023 21.0036H6.49734C4.8398 21.0036 3.49609 19.6599 3.49609 18.0023V5.99734C3.49609 4.3398 4.8398 2.99609 6.49734 2.99609H9.49859" stroke="#A7AEBB" stroke-width="1.5" stroke-linecap="round" stroke-linejoin="round"/>
<path fill-rule="evenodd" clip-rule="evenodd" d="M9.5 7.99805L12.5013 10.9993L9.5 7.99805Z" stroke="#A7AEBB" stroke-width="1.5" stroke-linecap="round" stroke-linejoin="round"/>
</svg>
