<svg width="24" height="24" viewBox="0 0 24 24" fill="none" xmlns="http://www.w3.org/2000/svg">
<path d="M16.0017 12H21.0038" stroke="#23374D" stroke-width="1.5" stroke-linecap="round" stroke-linejoin="round"/>
<path d="M19.0029 14.0008L21.0038 12L19.0029 9.99916" stroke="#23374D" stroke-width="1.5" stroke-linecap="round" stroke-linejoin="round"/>
<path d="M20.0034 17.0021V19.0029C20.0034 20.1084 19.108 21.0037 18.0025 21.0037H5.99754C4.89208 21.0037 3.9967 20.1084 3.9967 19.0029V4.99708C3.9967 3.89162 4.89208 2.99625 5.99754 2.99625H18.0025C19.108 2.99625 20.0034 3.89162 20.0034 4.99708V6.99791" stroke="#23374D" stroke-width="1.5" stroke-linecap="round" stroke-linejoin="round"/>
<path d="M8.99874 10.9996V13.0004" stroke="#23374D" stroke-width="1.5" stroke-linecap="round" stroke-linejoin="round"/>
<path d="M3.9967 18.9999C3.9967 20.4875 5.56236 21.4549 6.89191 20.7897L10.8936 18.7888C11.5719 18.4487 12 17.7564 12 16.9981V2.99625" stroke="#23374D" stroke-width="1.5" stroke-linecap="round" stroke-linejoin="round"/>
</svg>
