<svg width="55" height="56" viewBox="0 0 55 56" fill="none" xmlns="http://www.w3.org/2000/svg">
<path d="M16.2502 50.4183C22.4399 50.4183 27.4593 45.3989 27.4593 39.2091C27.4593 33.0194 22.4422 28 16.2502 28C10.0582 28 5.04102 33.0194 5.04102 39.2091" stroke="white" stroke-width="3" stroke-linecap="round" stroke-linejoin="round"/>
<path d="M16.2609 50.4296C14.574 50.4296 12.9763 50.057 11.5409 49.3918L4.64258 50.857L6.08486 43.945C5.41515 42.505 5.04029 40.9004 5.04029 39.209" stroke="white" stroke-width="2.57143" stroke-linecap="round" stroke-linejoin="round"/>
<path d="M15.0583 28.0634C14.24 26.1869 13.7852 24.1411 13.7852 21.9949C13.7852 12.8131 22.0092 5.44629 32.0709 5.44629C42.1326 5.44629 50.3566 12.8131 50.3566 21.9949C50.3566 27.4211 47.472 32.1983 43.0446 35.2109C43.0469 36.9389 43.0423 39.268 43.0423 41.7137L35.8674 38.18C34.64 38.4154 33.3714 38.5434 32.0709 38.5434C30.4549 38.5434 28.8869 38.3514 27.392 37.9926" stroke="white" stroke-width="2.57143" stroke-linecap="round" stroke-linejoin="round"/>
</svg>
