<svg width="24" height="24" viewBox="0 0 24 24" fill="none" xmlns="http://www.w3.org/2000/svg">
<path d="M4.93703 5.971C3.87503 7.061 3.10403 8.431 2.73303 9.959" stroke="#23374D" stroke-width="1.5" stroke-linecap="round" stroke-linejoin="round"/>
<path d="M9.29004 20.443C9.88104 20.571 10.494 20.642 11.124 20.642C12.016 20.642 12.877 20.506 13.687 20.255" stroke="#23374D" stroke-width="1.5" stroke-linecap="round" stroke-linejoin="round"/>
<path d="M2.73401 14.041C3.10501 15.569 3.87601 16.939 4.93801 18.029" stroke="#23374D" stroke-width="1.5" stroke-linecap="round" stroke-linejoin="round"/>
<path d="M19.405 14.464C18.986 15.876 18.212 17.133 17.193 18.142" stroke="#23374D" stroke-width="1.5" stroke-linecap="round" stroke-linejoin="round"/>
<path d="M17.193 5.858C18.212 6.867 18.985 8.124 19.405 9.536" stroke="#23374D" stroke-width="1.5" stroke-linecap="round" stroke-linejoin="round"/>
<path d="M9.29004 3.557C9.88104 3.429 10.494 3.358 11.124 3.358C12.016 3.358 12.877 3.494 13.687 3.745" stroke="#23374D" stroke-width="1.5" stroke-linecap="round" stroke-linejoin="round"/>
<path d="M21.5339 10.2322C22.5102 11.2085 22.5102 12.7914 21.5339 13.7677C20.5576 14.744 18.9747 14.744 17.9983 13.7677C17.022 12.7914 17.022 11.2085 17.9983 10.2322C18.9747 9.25589 20.5576 9.25589 21.5339 10.2322" stroke="#23374D" stroke-width="1.5" stroke-linecap="round" stroke-linejoin="round"/>
<path d="M8.82685 17.5692C9.80316 18.5455 9.80316 20.1284 8.82685 21.1047C7.85053 22.081 6.26763 22.081 5.29132 21.1047C4.315 20.1284 4.315 18.5455 5.29132 17.5692C6.26763 16.5929 7.85054 16.5929 8.82685 17.5692" stroke="#23374D" stroke-width="1.5" stroke-linecap="round" stroke-linejoin="round"/>
<path d="M8.82685 2.89523C9.80316 3.87154 9.80316 5.45445 8.82685 6.43076C7.85053 7.40707 6.26763 7.40707 5.29132 6.43076C4.315 5.45445 4.315 3.87154 5.29132 2.89523C6.26763 1.91892 7.85054 1.91892 8.82685 2.89523" stroke="#23374D" stroke-width="1.5" stroke-linecap="round" stroke-linejoin="round"/>
</svg>
