<svg width="24" height="24" viewBox="0 0 24 24" fill="none" xmlns="http://www.w3.org/2000/svg">
<path d="M12.4691 3.02278C13.8329 4.38649 13.8329 6.5975 12.4691 7.96121C11.1054 9.32492 8.89443 9.32492 7.53072 7.96121C6.16701 6.5975 6.16701 4.38649 7.53072 3.02278C8.89443 1.65907 11.1054 1.65907 12.4691 3.02278" stroke="#23374D" stroke-width="1.5" stroke-linecap="round" stroke-linejoin="round"/>
<path d="M14.363 12.796C13.064 12.277 11.54 11.991 10 11.991C5.952 11.991 2 13.958 2 16.983V17.983C2 18.535 2.448 18.983 3 18.983H12.413" stroke="#23374D" stroke-width="1.5" stroke-linecap="round" stroke-linejoin="round"/>
<path d="M17 22C14.239 22 12 19.762 12 17C12 14.296 14.3 11.997 17.004 12C19.764 12.002 22 14.24 22 17C22 19.761 19.762 22 17 22" stroke="#23374D" stroke-width="1.5" stroke-linecap="round" stroke-linejoin="round"/>
<path d="M17 15V15.67" stroke="#23374D" stroke-width="1.5" stroke-linecap="round" stroke-linejoin="round"/>
<path d="M17 18.33V19" stroke="#23374D" stroke-width="1.5" stroke-linecap="round" stroke-linejoin="round"/>
<path d="M15.2701 16L15.8501 16.33" stroke="#23374D" stroke-width="1.5" stroke-linecap="round" stroke-linejoin="round"/>
<path d="M18.1599 17.67L18.7299 18" stroke="#23374D" stroke-width="1.5" stroke-linecap="round" stroke-linejoin="round"/>
<path d="M15.2701 18L15.8501 17.67" stroke="#23374D" stroke-width="1.5" stroke-linecap="round" stroke-linejoin="round"/>
<path d="M18.1599 16.33L18.7299 16" stroke="#23374D" stroke-width="1.5" stroke-linecap="round" stroke-linejoin="round"/>
<path d="M17.9433 16.0567C18.4643 16.5777 18.4643 17.4223 17.9433 17.9433C17.4223 18.4642 16.5777 18.4642 16.0567 17.9433C15.5358 17.4223 15.5358 16.5777 16.0567 16.0567C16.5777 15.5357 17.4223 15.5357 17.9433 16.0567" stroke="#23374D" stroke-width="1.5" stroke-linecap="round" stroke-linejoin="round"/>
</svg>
