<svg width="24" height="24" viewBox="0 0 24 24" fill="none" xmlns="http://www.w3.org/2000/svg">
<path fill-rule="evenodd" clip-rule="evenodd" d="M17.5022 17.3612C18.5497 17.3612 19.3997 16.5139 19.403 15.4664V15.4664V15.4664C19.4024 14.9335 19.1896 14.4227 18.8118 14.0469L17.5523 12.7863V9.04177C17.552 7.56993 16.9667 6.15855 15.9253 5.11846C14.8839 4.07837 13.4718 3.49486 11.9999 3.49645V3.49645C8.93836 3.49811 6.45718 5.98019 6.45663 9.04177V12.7833L5.19711 14.0438C4.81898 14.4196 4.6059 14.9304 4.60486 15.4634V15.4634V15.4634C4.60817 16.5109 5.45821 17.3582 6.50565 17.3582L17.5022 17.3612Z" stroke="#23374D" stroke-width="1.5" stroke-linecap="round" stroke-linejoin="round"/>
<path d="M10.5204 20.5035H13.4786" stroke="#23374D" stroke-width="1.5" stroke-linecap="round" stroke-linejoin="round"/>
</svg>
