<svg width="24" height="24" viewBox="0 0 24 24" fill="none" xmlns="http://www.w3.org/2000/svg">
<path fill-rule="evenodd" clip-rule="evenodd" d="M2.32698 3.63803C2 4.27976 2 5.11984 2 6.8V17.2C2 18.8802 2 19.7202 2.32698 20.362C2.6146 20.9265 3.07354 21.3854 3.63803 21.673C4.27976 22 5.11984 22 6.8 22H17.2C18.8802 22 19.7202 22 20.362 21.673C20.9265 21.3854 21.3854 20.9265 21.673 20.362C22 19.7202 22 18.8802 22 17.2V6.8C22 5.11984 22 4.27976 21.673 3.63803C21.3854 3.07354 20.9265 2.6146 20.362 2.32698C19.7202 2 18.8802 2 17.2 2H6.8C5.11984 2 4.27976 2 3.63803 2.32698C3.07354 2.6146 2.6146 3.07354 2.32698 3.63803ZM16.7284 8.79289C16.3378 8.40237 15.7047 8.40237 15.3141 8.79289L10.0212 14.0858L8.20711 12.2716C7.81658 11.8811 7.18342 11.8811 6.79289 12.2716C6.40237 12.6622 6.40237 13.2953 6.79289 13.6859L9.31414 16.2071C9.70467 16.5976 10.3378 16.5976 10.7284 16.2071L16.7284 10.2071C17.1189 9.81658 17.1189 9.18342 16.7284 8.79289Z" fill="#1089FF"/>
<mask id="mask0_362_26117" style="mask-type:alpha" maskUnits="userSpaceOnUse" x="2" y="2" width="20" height="20">
<path fill-rule="evenodd" clip-rule="evenodd" d="M2.32698 3.63803C2 4.27976 2 5.11984 2 6.8V17.2C2 18.8802 2 19.7202 2.32698 20.362C2.6146 20.9265 3.07354 21.3854 3.63803 21.673C4.27976 22 5.11984 22 6.8 22H17.2C18.8802 22 19.7202 22 20.362 21.673C20.9265 21.3854 21.3854 20.9265 21.673 20.362C22 19.7202 22 18.8802 22 17.2V6.8C22 5.11984 22 4.27976 21.673 3.63803C21.3854 3.07354 20.9265 2.6146 20.362 2.32698C19.7202 2 18.8802 2 17.2 2H6.8C5.11984 2 4.27976 2 3.63803 2.32698C3.07354 2.6146 2.6146 3.07354 2.32698 3.63803ZM16.7284 8.79289C16.3378 8.40237 15.7047 8.40237 15.3141 8.79289L10.0212 14.0858L8.20711 12.2716C7.81658 11.8811 7.18342 11.8811 6.79289 12.2716C6.40237 12.6622 6.40237 13.2953 6.79289 13.6859L9.31414 16.2071C9.70467 16.5976 10.3378 16.5976 10.7284 16.2071L16.7284 10.2071C17.1189 9.81658 17.1189 9.18342 16.7284 8.79289Z" fill="white"/>
</mask>
<g mask="url(#mask0_362_26117)">
</g>
</svg>
