<svg width="24" height="24" viewBox="0 0 24 24" fill="none" xmlns="http://www.w3.org/2000/svg">
<path fill-rule="evenodd" clip-rule="evenodd" d="M9.92443 18.4745C9.58687 18.8126 9.1288 19.0027 8.65105 19.0029C8.17331 19.0032 7.71504 18.8136 7.37713 18.4758L3.52396 14.6247C3.18606 14.287 2.99622 13.8288 2.99622 13.3511C2.99622 12.8733 3.18606 12.4152 3.52396 12.0774L10.0217 5.58274C10.3969 5.20772 10.9057 4.99708 11.4361 4.99708H15.0012C16.1062 4.99708 17.002 5.89289 17.002 6.99792V10.5579C17.002 11.088 16.7917 11.5964 16.4171 11.9716L9.92443 18.4745Z" stroke="#323232" stroke-width="1.5" stroke-linecap="round" stroke-linejoin="round"/>
<path d="M21.0038 7.99833V11.7973C21.0038 12.328 20.793 12.8369 20.4177 13.2121L14.7532 18.8767" stroke="#323232" stroke-width="1.5" stroke-linecap="round" stroke-linejoin="round"/>
</svg>
