<svg width="24" height="24" viewBox="0 0 24 24" fill="none" xmlns="http://www.w3.org/2000/svg">
<path fill-rule="evenodd" clip-rule="evenodd" d="M20.2 6.6L16.9 9.9L18.7 18.8C18.8 19.1 18.7 19.5 18.4 19.7L17.7 20.4C17.2 20.9 16.3 20.7 16.1 20.1L13.5 13.4L10.1 16.8L10.3 19C10.3 19.3 10.2 19.6 10 19.8L8.90005 20.9L6.80005 17.4L3.30005 15.3L4.30005 14C4.50005 13.8 4.80005 13.7 5.10005 13.7L7.30005 13.9L10.7 10.5L3.90005 7.9C3.30005 7.6 3.10005 6.8 3.60005 6.3L4.30005 5.6C4.50005 5.4 4.90005 5.3 5.20005 5.3L14.1 7.1L17.4 3.8C18.2 3 19.4 3 20.2 3.8V3.8C21 4.6 21 5.8 20.2 6.6V6.6Z" stroke="#23374D" stroke-width="1.5" stroke-linecap="round" stroke-linejoin="round"/>
</svg>
