<svg width="25" height="24" viewBox="0 0 25 24" fill="none" xmlns="http://www.w3.org/2000/svg">
<path d="M1.75 19C1.75 19.4142 2.08579 19.75 2.5 19.75C2.91421 19.75 3.25 19.4142 3.25 19H1.75ZM13.75 19C13.75 19.4142 14.0858 19.75 14.5 19.75C14.9142 19.75 15.25 19.4142 15.25 19H13.75ZM3.25 19C3.25 17.2142 4.71421 15.75 6.5 15.75V14.25C3.88579 14.25 1.75 16.3858 1.75 19H3.25ZM6.5 15.75H10.5V14.25H6.5V15.75ZM10.5 15.75C12.2858 15.75 13.75 17.2142 13.75 19H15.25C15.25 16.3858 13.1142 14.25 10.5 14.25V15.75Z" fill="#A7AEBB"/>
<path d="M11.0007 6.00015C12.4007 7.40015 12.4007 9.60015 11.0007 10.9002C9.60066 12.2002 7.40066 12.3002 6.10066 10.9002C4.80066 9.50015 4.70066 7.40015 6.00066 6.00015C7.30066 4.60015 9.60066 4.70015 11.0007 6.00015" stroke="#A7AEBB" stroke-width="1.5" stroke-linecap="round" stroke-linejoin="round"/>
<path d="M16.5 13.25C16.0858 13.25 15.75 13.5858 15.75 14C15.75 14.4142 16.0858 14.75 16.5 14.75V13.25ZM21.75 17C21.75 17.4142 22.0858 17.75 22.5 17.75C22.9142 17.75 23.25 17.4142 23.25 17H21.75ZM16.5 14.75H19.5V13.25H16.5V14.75ZM19.5 14.75C20.7858 14.75 21.75 15.7142 21.75 17H23.25C23.25 14.8858 21.6142 13.25 19.5 13.25V14.75Z" fill="#A7AEBB"/>
<path d="M19.7989 6.70039C20.7989 7.70039 20.7989 9.30039 19.7989 10.2004C18.7989 11.1004 17.1989 11.2004 16.2989 10.2004C15.3989 9.20039 15.2989 7.60039 16.2989 6.70039C17.1989 5.80039 18.7989 5.80039 19.7989 6.70039" stroke="#A7AEBB" stroke-width="1.5" stroke-linecap="round" stroke-linejoin="round"/>
</svg>
