<svg width="24" height="24" viewBox="0 0 24 24" fill="none" xmlns="http://www.w3.org/2000/svg">
<path d="M1.25 19C1.25 19.4142 1.58579 19.75 2 19.75C2.41421 19.75 2.75 19.4142 2.75 19H1.25ZM13.25 19C13.25 19.4142 13.5858 19.75 14 19.75C14.4142 19.75 14.75 19.4142 14.75 19H13.25ZM2.75 19C2.75 17.2142 4.21421 15.75 6 15.75V14.25C3.38579 14.25 1.25 16.3858 1.25 19H2.75ZM6 15.75H10V14.25H6V15.75ZM10 15.75C11.7858 15.75 13.25 17.2142 13.25 19H14.75C14.75 16.3858 12.6142 14.25 10 14.25V15.75Z" fill="#010034"/>
<path fill-rule="evenodd" clip-rule="evenodd" d="M10.4997 6.00003C11.8997 7.40003 11.8997 9.60003 10.4997 10.9C9.09968 12.2 6.89968 12.3 5.59968 10.9C4.29968 9.50003 4.19968 7.40003 5.49968 6.00003C6.79968 4.60003 9.09968 4.70003 10.4997 6.00003" fill="#010034"/>
<path d="M10.4997 6.00003C11.8997 7.40003 11.8997 9.60003 10.4997 10.9C9.09968 12.2 6.89968 12.3 5.59968 10.9C4.29968 9.50003 4.19968 7.40003 5.49968 6.00003C6.79968 4.60003 9.09968 4.70003 10.4997 6.00003" stroke="#010034" stroke-width="1.5" stroke-linecap="round" stroke-linejoin="round"/>
<path d="M16 13.25C15.5858 13.25 15.25 13.5858 15.25 14C15.25 14.4142 15.5858 14.75 16 14.75V13.25ZM21.25 17C21.25 17.4142 21.5858 17.75 22 17.75C22.4142 17.75 22.75 17.4142 22.75 17H21.25ZM16 14.75H19V13.25H16V14.75ZM19 14.75C20.2858 14.75 21.25 15.7142 21.25 17H22.75C22.75 14.8858 21.1142 13.25 19 13.25V14.75Z" fill="#010034"/>
<path fill-rule="evenodd" clip-rule="evenodd" d="M19.2999 6.70002C20.2999 7.70002 20.2999 9.30002 19.2999 10.2C18.2999 11.1 16.6999 11.2 15.7999 10.2C14.8999 9.20002 14.7999 7.60002 15.7999 6.70002C16.6999 5.80002 18.2999 5.80002 19.2999 6.70002" fill="#010034"/>
<path d="M19.2999 6.70002C20.2999 7.70002 20.2999 9.30002 19.2999 10.2C18.2999 11.1 16.6999 11.2 15.7999 10.2C14.8999 9.20002 14.7999 7.60002 15.7999 6.70002C16.6999 5.80002 18.2999 5.80002 19.2999 6.70002" stroke="#010034" stroke-width="1.5" stroke-linecap="round" stroke-linejoin="round"/>
</svg>
