<svg width="32" height="32" viewBox="0 0 32 32" fill="none" xmlns="http://www.w3.org/2000/svg">
<mask id="mask0_6_2331" style="mask-type:alpha" maskUnits="userSpaceOnUse" x="0" y="0" width="32" height="32">
<path d="M16 32C24.8366 32 32 24.8366 32 16C32 7.16344 24.8366 0 16 0C7.16344 0 0 7.16344 0 16C0 24.8366 7.16344 32 16 32Z" fill="url(#paint0_linear_6_2331)"/>
</mask>
<g mask="url(#mask0_6_2331)">
<mask id="mask1_6_2331" style="mask-type:alpha" maskUnits="userSpaceOnUse" x="0" y="0" width="33" height="32">
<path fill-rule="evenodd" clip-rule="evenodd" d="M7.27465 0.01574C6.56097 0.0410552 5.64123 0.0969324 5.2232 0.181404C4.58507 0.310079 3.98236 0.505648 3.4813 0.76103C2.89249 1.06101 2.36481 1.44402 1.909 1.89903C1.45241 2.35471 1.06783 2.88305 0.76667 3.47264C0.511813 3.97121 0.316506 4.57025 0.187044 5.2047C0.100999 5.62706 0.0442032 6.55362 0.0183634 7.27176C0.00773885 7.56545 0.00249217 7.94544 0.00249217 8.12054L0 23.877C0 24.0516 0.00524668 24.4317 0.01574 24.7254C0.0410552 25.439 0.0969323 26.3589 0.181273 26.7768C0.31021 27.4149 0.505648 28.0176 0.76103 28.5187C1.06114 29.1075 1.44402 29.6353 1.8989 30.091C2.35484 30.5477 2.88305 30.9322 3.47277 31.2335C3.97121 31.4882 4.57025 31.6835 5.2047 31.813C5.62693 31.899 6.55375 31.9558 7.27189 31.9818C7.56531 31.9923 7.94543 31.9975 8.12054 31.9975L23.8771 32C24.0515 32 24.4315 31.9948 24.7254 31.9843C25.439 31.959 26.3588 31.9031 26.7768 31.8187C27.4151 31.6898 28.0176 31.4944 28.5188 31.2391C29.1076 30.9389 29.6353 30.556 30.091 30.1011C30.5477 29.6452 30.932 29.117 31.2333 28.5274C31.4881 28.0288 31.6834 27.4298 31.8128 26.7953C31.8989 26.3731 31.9558 25.4464 31.9816 24.7282C31.9921 24.4347 31.9975 24.0546 31.9975 23.8795L32.0001 8.12304C32.0001 7.94845 31.9948 7.56846 31.9843 7.27465C31.9589 6.56097 31.9031 5.64123 31.8186 5.2232C31.6899 4.58507 31.4945 3.98236 31.239 3.4813C30.939 2.89236 30.5561 2.36481 30.101 1.909C29.6453 1.45228 29.117 1.06796 28.5274 0.766671C28.0288 0.511944 27.4298 0.316506 26.7954 0.187175C26.3731 0.10113 25.4462 0.0442033 24.7281 0.0183634C24.4346 0.00787002 24.0547 0.00249217 23.8796 0.00249217L8.12303 0C7.94858 0 7.56846 0.00537784 7.27465 0.01574Z" fill="white"/>
</mask>
<g mask="url(#mask1_6_2331)">
<path fill-rule="evenodd" clip-rule="evenodd" d="M7.27465 0.01574C6.56097 0.0410553 5.64123 0.0969324 5.2232 0.181404C4.58507 0.310079 3.98236 0.505649 3.4813 0.761031C2.89249 1.06101 2.36481 1.44402 1.909 1.89903C1.45241 2.35471 1.06783 2.88305 0.76667 3.47264C0.511813 3.97121 0.316506 4.57025 0.187044 5.2047C0.100999 5.62706 0.0442032 6.55362 0.0183634 7.27176C0.00773885 7.56545 0.00249217 7.94544 0.00249217 8.12054L0 23.877C0 24.0516 0.00524668 24.4317 0.01574 24.7254C0.0410552 25.439 0.0969323 26.3589 0.181273 26.7768C0.31021 27.4149 0.505648 28.0177 0.76103 28.5187C1.06114 29.1075 1.44402 29.6353 1.8989 30.091C2.35484 30.5477 2.88305 30.9322 3.47277 31.2335C3.97121 31.4882 4.57025 31.6835 5.2047 31.813C5.62693 31.899 6.55375 31.9558 7.27189 31.9818C7.56531 31.9923 7.94543 31.9975 8.12054 31.9975L23.8771 32C24.0515 32 24.4315 31.9948 24.7254 31.9843C25.439 31.959 26.3588 31.9031 26.7768 31.8187C27.4151 31.6898 28.0176 31.4944 28.5188 31.2391C29.1076 30.9389 29.6353 30.556 30.091 30.1011C30.5477 29.6452 30.932 29.117 31.2333 28.5274C31.4881 28.0288 31.6834 27.4298 31.8128 26.7953C31.8989 26.3731 31.9558 25.4464 31.9816 24.7282C31.9921 24.4347 31.9975 24.0546 31.9975 23.8795L32.0001 8.12304C32.0001 7.94845 31.9948 7.56846 31.9843 7.27465C31.9589 6.56097 31.9031 5.64123 31.8186 5.2232C31.6899 4.58507 31.4945 3.98236 31.239 3.4813C30.939 2.89236 30.5561 2.36481 30.101 1.909C29.6453 1.45228 29.1169 1.06796 28.5274 0.766671C28.0288 0.511944 27.4298 0.316506 26.7954 0.187175C26.3731 0.10113 25.4462 0.0442033 24.7281 0.0183634C24.4346 0.00787001 24.0547 0.00249217 23.8796 0.00249217L8.12303 0C7.94858 0 7.56846 0.00537784 7.27465 0.01574Z" fill="url(#paint1_linear_6_2331)"/>
</g>
<path fill-rule="evenodd" clip-rule="evenodd" d="M20.1219 17.439C19.9149 17.3355 18.8977 16.8351 18.7081 16.7661C18.5185 16.697 18.3806 16.6626 18.2426 16.8696C18.1047 17.0767 17.7082 17.5426 17.5874 17.6807C17.4667 17.8187 17.3461 17.8359 17.1391 17.7324C16.9322 17.6289 16.2656 17.4104 15.4754 16.7058C14.8603 16.1574 14.445 15.48 14.3243 15.2729C14.2036 15.0658 14.3115 14.9539 14.4151 14.8508C14.5081 14.7582 14.622 14.6092 14.7255 14.4884C14.8289 14.3677 14.8634 14.2814 14.9324 14.1434C15.0013 14.0054 14.9668 13.8845 14.915 13.781C14.8634 13.6775 14.4495 12.6594 14.2772 12.2453C14.1093 11.842 13.9386 11.8965 13.8117 11.8902C13.6911 11.8842 13.553 11.8829 13.4151 11.8829C13.2772 11.8829 13.053 11.9348 12.8634 12.1418C12.6738 12.3489 12.1393 12.8493 12.1393 13.8673C12.1393 14.8853 12.8806 15.8688 12.9841 16.0068C13.0875 16.1449 14.443 18.2341 16.5185 19.13C17.0121 19.3431 17.3975 19.4704 17.6981 19.5657C18.1937 19.7231 18.6447 19.7009 19.0011 19.6477C19.3987 19.5883 20.2252 19.1473 20.3977 18.6641C20.5701 18.181 20.5701 17.7669 20.5184 17.6807C20.4667 17.5944 20.3288 17.5427 20.1219 17.439ZM16.347 22.592H16.3442C15.1092 22.5915 13.898 22.2599 12.8413 21.633L12.5899 21.4838L9.9851 22.1669L10.6804 19.6281L10.5168 19.3678C9.82779 18.2724 9.46396 17.0062 9.46452 15.7062C9.46604 11.9128 12.5534 8.8265 16.3497 8.8265C18.1879 8.82726 19.9159 9.54386 21.2154 10.8443C22.5147 12.1447 23.23 13.8734 23.2293 15.7117C23.2278 19.5055 20.1403 22.592 16.347 22.592ZM22.2044 9.85593C20.6411 8.29125 18.5622 7.42917 16.3469 7.42822C11.783 7.42822 8.06837 11.1414 8.06648 15.7056C8.06591 17.1645 8.44717 18.5885 9.17182 19.8438L7.9971 24.1334L12.3866 22.9822C13.5961 23.6417 14.9577 23.9892 16.3436 23.9898H16.347C16.3473 23.9898 16.3467 23.9898 16.347 23.9898C20.9106 23.9898 24.6256 20.2763 24.6275 15.7121C24.6282 13.5003 23.7679 11.4205 22.2044 9.85593Z" fill="white"/>
</g>
<defs>
<linearGradient id="paint0_linear_6_2331" x1="21.3346" y1="5.33457" x2="13.3346" y2="24" gradientUnits="userSpaceOnUse">
<stop stop-color="#37AEE2"/>
<stop offset="1" stop-color="#1E96C8"/>
</linearGradient>
<linearGradient id="paint1_linear_6_2331" x1="-6.67576e-05" y1="-5.26242e-05" x2="-6.67576e-05" y2="32" gradientUnits="userSpaceOnUse">
<stop stop-color="#60FD7C"/>
<stop offset="1" stop-color="#2AB826"/>
</linearGradient>
</defs>
</svg>
